<svg id="svg" version="1.1" xmlns="http://www.w3.org/2000/svg" xmlns:xlink="http://www.w3.org/1999/xlink" width="400" height="458.1818181818182" viewBox="0, 0, 400,458.1818181818182"><g id="svgg"><path id="path0" d="M119.485 17.315 C -48.394 95.487,-32.602 396.880,142.033 447.648 C 240.766 476.350,378.182 406.468,378.182 327.556 C 378.182 290.464,297.443 283.521,284.889 319.534 C 270.224 361.602,193.566 380.305,153.972 351.475 C 83.471 300.142,86.790 136.040,159.085 98.655 C 205.667 74.567,271.010 91.562,284.889 131.376 C 298.050 169.129,378.182 158.314,378.182 118.784 C 378.182 31.034,221.772 -30.315,119.485 17.315 M323.636 183.236 C 303.378 194.724,298.422 203.827,298.293 229.782 C 298.080 272.794,353.946 293.327,385.455 261.818 C 425.150 222.123,372.681 155.425,323.636 183.236 " stroke="none" fill="#000000" fill-rule="evenodd"></path></g></svg>