<svg id="svg" version="1.1" xmlns="http://www.w3.org/2000/svg" xmlns:xlink="http://www.w3.org/1999/xlink" width="400" height="78.97435897435898" viewBox="0, 0, 400,78.97435897435898"><g id="svgg"><path id="path0" d="M24.103 3.978 C 0.264 10.132,-3.892 51.157,18.178 62.464 C 30.551 68.804,47.076 63.862,53.182 51.998 C 56.195 46.143,55.664 45.308,48.383 44.445 C 43.785 43.901,43.077 44.055,43.077 45.601 C 43.077 52.442,30.942 56.645,23.787 52.283 C 14.666 46.722,13.635 26.160,22.054 17.740 C 28.300 11.495,43.077 14.470,43.077 21.972 C 43.077 23.725,46.476 24.089,52.179 22.949 C 59.070 21.571,51.764 9.016,41.886 5.260 C 38.003 3.784,27.724 3.043,24.103 3.978 M338.462 15.051 L 338.462 23.947 335.815 21.461 C 329.731 15.746,318.313 19.122,313.584 28.035 C 304.097 45.914,322.449 71.095,335.815 58.539 C 337.984 56.502,338.462 56.363,338.462 57.770 C 338.462 59.147,339.478 59.487,343.590 59.487 L 348.718 59.487 348.718 32.821 L 348.718 6.154 343.590 6.154 L 338.462 6.154 338.462 15.051 M245.128 15.385 C 245.128 20.171,244.957 20.513,242.564 20.513 C 240.317 20.513,240.000 20.957,240.000 24.103 C 240.000 27.248,240.317 27.692,242.564 27.692 L 245.128 27.692 245.128 41.938 C 245.128 59.811,248.039 63.862,258.919 61.131 C 262.950 60.119,262.787 53.613,258.718 53.145 L 255.897 52.821 255.609 40.256 L 255.321 27.692 258.495 27.692 C 263.032 27.692,262.764 21.226,258.205 20.701 C 255.553 20.396,255.385 20.074,255.385 15.316 L 255.385 10.256 250.256 10.256 L 245.128 10.256 245.128 15.385 M76.410 20.326 C 60.915 27.685,61.715 54.051,77.617 60.124 C 91.877 65.570,104.028 56.328,104.079 40.000 C 104.130 23.369,90.463 13.651,76.410 20.326 M126.810 20.995 C 123.270 23.397,123.077 23.424,123.077 21.508 C 123.077 19.767,122.367 19.487,117.949 19.487 L 112.821 19.487 112.821 39.487 L 112.821 59.487 117.949 59.487 L 123.077 59.487 123.077 45.641 C 123.077 29.857,123.996 27.692,130.696 27.692 C 136.874 27.692,137.436 29.153,137.436 45.201 L 137.436 59.487 142.564 59.487 L 147.692 59.487 147.692 43.539 C 147.692 25.427,146.821 22.355,140.990 19.919 C 135.812 17.756,131.051 18.117,126.810 20.995 M166.174 20.258 C 156.718 25.009,152.984 41.591,158.801 52.994 C 162.915 61.057,171.842 63.794,178.718 59.098 L 182.564 56.472 182.564 59.893 C 182.564 67.510,173.099 72.062,168.480 66.667 C 166.042 63.819,156.923 63.668,156.923 66.475 C 156.923 76.433,180.807 79.110,188.767 70.044 L 191.795 66.595 191.795 43.041 L 191.795 19.487 187.179 19.487 C 182.891 19.487,182.564 19.676,182.564 22.158 L 182.564 24.828 178.939 21.645 C 174.786 17.999,171.403 17.631,166.174 20.258 M208.640 20.405 C 204.543 22.266,201.026 27.244,201.026 31.181 C 201.026 34.227,210.032 33.409,211.480 30.232 C 213.774 25.197,222.785 25.737,223.392 30.946 C 223.732 33.866,221.708 34.916,212.856 36.412 C 204.465 37.829,200.000 42.282,200.000 49.231 C 200.000 59.696,211.838 65.037,220.629 58.538 C 224.058 56.003,224.615 55.920,224.615 57.949 C 224.615 59.144,225.976 59.487,230.708 59.487 L 236.801 59.487 235.330 56.667 C 234.263 54.622,233.857 50.007,233.852 39.882 C 233.843 19.763,225.036 12.959,208.640 20.405 M367.692 20.326 C 352.197 27.685,352.997 54.051,368.899 60.124 C 383.159 65.570,395.310 56.328,395.361 40.000 C 395.412 23.369,381.746 13.651,367.692 20.326 M267.692 34.805 C 267.692 50.637,268.368 54.283,272.027 58.189 C 276.244 62.691,285.959 62.479,290.654 57.784 C 293.238 55.200,293.333 55.183,293.333 57.296 C 293.333 59.242,293.908 59.487,298.462 59.487 L 303.590 59.487 303.590 39.487 L 303.590 19.487 298.462 19.487 L 293.333 19.487 293.333 33.195 C 293.333 49.865,292.078 52.640,284.779 52.105 C 278.729 51.660,277.982 49.575,277.964 33.077 L 277.949 19.487 272.821 19.487 L 267.692 19.487 267.692 34.805 M90.260 29.589 C 95.569 34.898,95.569 45.102,90.260 50.411 C 83.564 57.107,75.897 51.549,75.897 40.000 C 75.897 28.443,83.559 22.889,90.260 29.589 M179.968 31.210 C 183.098 35.408,182.905 46.105,179.637 49.584 C 172.785 56.878,165.217 50.397,166.465 38.304 C 167.610 27.209,174.346 23.670,179.968 31.210 M337.033 32.414 C 343.046 46.805,329.628 60.734,322.822 47.165 C 319.464 40.469,321.619 30.733,327.051 28.061 C 330.747 26.243,335.281 28.220,337.033 32.414 M381.542 29.589 C 390.526 38.574,382.638 57.836,372.251 52.277 C 365.623 48.730,365.484 31.600,372.051 27.774 C 375.196 25.943,378.534 26.581,381.542 29.589 M46.154 29.744 C 42.092 33.806,45.045 41.026,50.769 41.026 C 54.061 41.026,57.436 37.651,57.436 34.359 C 57.436 32.949,56.513 30.872,55.385 29.744 C 54.256 28.615,52.179 27.692,50.769 27.692 C 49.359 27.692,47.282 28.615,46.154 29.744 M223.963 45.424 C 222.830 51.809,216.181 55.300,212.132 51.636 C 208.087 47.976,210.286 44.692,218.172 42.616 C 224.193 41.031,224.700 41.277,223.963 45.424 " stroke="none" fill="#000000" fill-rule="evenodd"></path></g></svg>